<?xml version="1.0" encoding="UTF-8"?>
<svg id="_图层_1" data-name="图层_1" xmlns="http://www.w3.org/2000/svg" version="1.1" viewBox="0 0 500 500">
  <!-- Generator: Adobe Illustrator 29.4.0, SVG Export Plug-In . SVG Version: 2.1.0 Build 152)  -->
  <path d="M450,250c0,25.18-22.95,71.03-45.33,79.02-81.4,29.07-125.19-5.81-169.38.39-23.06,3.24-41.09,48.06,14.71,64.99,12.44,3.77,35.63,38.89-11.61,38.89-110.46,0-188.39-72.83-188.39-183.29S139.54,50,250,50s200,89.54,200,200Z" display="none" fill="#232d30"/>
  <path d="M250,58.36c-110.46,0-200,89.54-200,200s76.77,193.92,187.22,193.92c47.24,0,62.4-36.43,25.21-45.75-61.48-15.4-38.96-66.27-15.9-69.51,44.19-6.2,81.52,40.37,158.13.36,27.13-14.17,45.33-53.84,45.33-79.02,0-110.46-89.54-200-200-200ZM128.7,225.61c-22.09,0-40-17.91-40-40s17.91-40,40-40,40,17.91,40,40-17.91,40-40,40ZM223.27,169.41c-22.09,0-40-17.91-40-40s17.91-40,40-40,40,17.91,40,40-17.91,40-40,40ZM330.4,185.61c-22.09,0-40-17.91-40-40s17.91-40,40-40,40,17.91,40,40-17.91,40-40,40ZM387.61,281.04c-22.09,0-40-17.91-40-40s17.91-40,40-40,40,17.91,40,40-17.91,40-40,40Z" fill="#232d30"/>
</svg>