<?xml version="1.0" encoding="UTF-8"?>
<svg id="_图层_1" data-name="图层_1" xmlns="http://www.w3.org/2000/svg" version="1.1" viewBox="0 0 500 500">
  <!-- Generator: Adobe Illustrator 29.4.0, SVG Export Plug-In . SVG Version: 2.1.0 Build 152)  -->
  <path d="M430,115c5.51,0,10,4.49,10,10v250c0,5.51-4.49,10-10,10H70c-5.51,0-10-4.49-10-10V125c0-5.51,4.49-10,10-10h360M430,85H70c-22.09,0-40,17.91-40,40v250c0,22.09,17.91,40,40,40h360c22.09,0,40-17.91,40-40V125c0-22.09-17.91-40-40-40h0Z"/>
  <rect x="75" y="230" width="330" height="40" rx="20" ry="20"/>
  <rect x="75" y="310" width="280" height="40" rx="20" ry="20"/>
  <rect x="75" y="150" width="240" height="40" rx="20" ry="20"/>
</svg>