<?xml version="1.0" encoding="UTF-8"?>
<svg id="_图层_1" data-name="图层_1" xmlns="http://www.w3.org/2000/svg" version="1.1" viewBox="0 0 500 500">
  <!-- Generator: Adobe Illustrator 29.4.0, SVG Export Plug-In . SVG Version: 2.1.0 Build 152)  -->
  <path d="M415,110c11.03,0,20,8.97,20,20v240c0,11.03-8.97,20-20,20H85c-11.03,0-20-8.97-20-20v-240c0-11.03,8.97-20,20-20h330M415,70H85c-33.14,0-60,26.86-60,60v240c0,33.14,26.86,60,60,60h330c33.14,0,60-26.86,60-60v-240c0-33.14-26.86-60-60-60h0Z" fill="#1c1c1c"/>
  <text transform="translate(115.46 574.86)" fill="#1c1c1c" font-family="Arial-BoldMT, Arial" font-size="560" font-weight="700"><tspan x="0" y="0">”</tspan></text>
</svg>