<?xml version="1.0" encoding="UTF-8"?>
<svg xmlns="http://www.w3.org/2000/svg" version="1.1" viewBox="0 0 500 500">
  <!-- Generator: Adobe Illustrator 28.7.1, SVG Export Plug-In . SVG Version: 1.2.0 Build 142)  -->
  <g>
    <g id="_图层_1" data-name="图层_1">
      <path d="M114.41,359.36c-38.41-21.33-64.41-62.31-64.41-109.36h0c0-69.04,55.96-125,125-125h150" fill="none" stroke="#000" stroke-miterlimit="10" stroke-width="30"/>
      <g>
        <path d="M285.29,57.25c-3.84,0-7.68,1.46-10.61,4.39-5.86,5.86-5.86,15.36,0,21.21l49.5,49.5c2.93,2.93,6.77,4.39,10.61,4.39s7.68-1.46,10.61-4.39h0c5.86-5.86,5.86-15.36,0-21.21l-49.5-49.5c-2.93-2.93-6.77-4.39-10.61-4.39h0Z"/>
        <path d="M334.71,107.63c-3.84,0-7.68,1.46-10.61,4.39l-49.5,49.5c-5.86,5.86-5.86,15.36,0,21.21h0c2.93,2.93,6.77,4.39,10.61,4.39s7.68-1.46,10.61-4.39l49.5-49.5c5.86-5.86,5.86-15.36,0-21.21-2.93-2.93-6.77-4.39-10.61-4.39h0Z"/>
      </g>
      <path d="M382.59,132.64c38.41,21.33,64.41,62.31,64.41,109.36h0c0,69.04-55.96,125-125,125h-150" fill="none" stroke="#000" stroke-miterlimit="10" stroke-width="30"/>
      <g>
        <path d="M162.19,351.35c-3.84,0-7.68,1.46-10.61,4.39h0c-5.86,5.86-5.86,15.36,0,21.21l49.5,49.5c2.93,2.93,6.77,4.39,10.61,4.39s7.68-1.46,10.61-4.39h0c5.86-5.86,5.86-15.36,0-21.21l-49.5-49.5c-2.93-2.93-6.77-4.39-10.61-4.39h0Z"/>
        <path d="M211.76,300.97c-3.84,0-7.68,1.46-10.61,4.39l-49.5,49.5c-5.86,5.86-5.86,15.36,0,21.21,2.93,2.93,6.77,4.39,10.61,4.39s7.68-1.46,10.61-4.39l49.5-49.5c5.86-5.86,5.86-15.36,0-21.21h0c-2.93-2.93-6.77-4.39-10.61-4.39h0Z"/>
      </g>
      <circle cx="114" cy="359" r="15"/>
      <circle cx="383" cy="133" r="15"/>
    </g>
  </g>
</svg>