<?xml version="1.0" encoding="UTF-8"?>
<svg id="_图层_1" data-name="图层_1" xmlns="http://www.w3.org/2000/svg" version="1.1" viewBox="0 0 500 500">
  <!-- Generator: Adobe Illustrator 29.4.0, SVG Export Plug-In . SVG Version: 2.1.0 Build 152)  -->
  <g>
    <path d="M113.25,361.43c-38.41-21.33-64.41-62.31-64.41-109.36h0c0-69.04,55.96-125,125-125h150" fill="none" stroke="#3e7df9" stroke-miterlimit="10" stroke-width="50"/>
    <rect x="268.43" y="43.31" width="50" height="120" rx="25" ry="25" transform="translate(12.89 237.74) rotate(-45)" fill="#3e7df9"/>
    <rect x="233.09" y="127.01" width="120" height="50" rx="25" ry="25" transform="translate(-21.64 251.77) rotate(-45)" fill="#3e7df9"/>
  </g>
  <g>
    <circle cx="395.16" cy="361.98" r="60" fill="none" stroke="#3e7df9" stroke-miterlimit="10" stroke-width="20"/>
    <path d="M344.7,371.39c-6.4,1.01-12.96,1.54-19.65,1.54h-150" fill="none" stroke="#3e7df9" stroke-miterlimit="10" stroke-width="50"/>
    <path d="M385.65,138.57c38.41,21.33,64.41,62.31,64.41,109.36h0c0,25.89-7.87,49.94-21.35,69.89" fill="none" stroke="#3e7df9" stroke-miterlimit="10" stroke-width="50"/>
    <rect x="180.47" y="336.69" width="50" height="120" rx="25" ry="25" transform="translate(-220.32 261.48) rotate(-45)" fill="#3e7df9"/>
    <rect x="145.81" y="322.99" width="120" height="50" rx="25" ry="25" transform="translate(-185.79 247.45) rotate(-45)" fill="#3e7df9"/>
    <text transform="translate(368.02 396.45)" fill="#3e7df9" font-family="Arial-BoldMT, Arial" font-size="97.22" font-weight="700"><tspan x="0" y="0">1</tspan></text>
  </g>
</svg>