<?xml version="1.0" encoding="UTF-8"?>
<svg id="_图层_1" data-name="图层_1" xmlns="http://www.w3.org/2000/svg" version="1.1" viewBox="0 0 500 500">
  <!-- Generator: Adobe Illustrator 29.4.0, SVG Export Plug-In . SVG Version: 2.1.0 Build 152)  -->
  <g>
    <rect x="34.57" y="149.9" width="140" height="200.19" rx="45" ry="45" fill="#1c1c1c"/>
    <path d="M205.51,406.25l-53.23-39.77c-12.92-9.65-21.92-28.98-21.92-44.53v-143.89c0-15.55,9-34.88,21.92-44.53l53.23-39.77c28.85-21.56,58.82-18.74,58.82,12.36v287.77c0,31.1-29.97,33.91-58.82,12.36Z" fill="#1c1c1c"/>
  </g>
  <g>
    <path d="M313.5,221.3c17.67,17.67,17.8,46.13.29,63.64" fill="none" stroke="#1c1c1c" stroke-miterlimit="10" stroke-width="40"/>
    <circle cx="313.46" cy="221.27" r="20" fill="#1c1c1c"/>
    <circle cx="313.46" cy="285.27" r="20" fill="#1c1c1c"/>
  </g>
  <g>
    <path d="M356.21,186.52c36.62,36.62,36.62,95.87,0,132.49" fill="none" stroke="#1c1c1c" stroke-miterlimit="10" stroke-width="40"/>
    <circle cx="355.46" cy="186.27" r="20" fill="#1c1c1c"/>
    <circle cx="355.46" cy="320.27" r="20" fill="#1c1c1c"/>
  </g>
  <g>
    <path d="M401.46,144.2c58.63,58.63,58.63,153.51,0,212.13" fill="none" stroke="#1c1c1c" stroke-miterlimit="10" stroke-width="40"/>
    <circle cx="401.46" cy="144.27" r="20" fill="#1c1c1c"/>
    <circle cx="401.46" cy="356.27" r="20" fill="#1c1c1c"/>
  </g>
</svg>