<?xml version="1.0" encoding="UTF-8"?>
<svg id="_图层_1" data-name="图层_1" xmlns="http://www.w3.org/2000/svg" version="1.1" viewBox="0 0 500 500">
  <!-- Generator: Adobe Illustrator 29.4.0, SVG Export Plug-In . SVG Version: 2.1.0 Build 152)  -->
  <path d="M325,125v50h-90v-50h90M350,100h-140v80c0,11.05,8.95,20,20,20h100c11.05,0,20-8.95,20-20v-80h0Z" fill="#3e7df9"/>
  <path d="M315.4,305v70h-130v-70h130M320.4,280h-140c-11.05,0-20,8.95-20,20v100h180v-100c0-11.05-8.95-20-20-20h0Z" fill="#3e7df9"/>
  <path d="M370,125c2.76,0,5,2.24,5,5v240c0,2.76-2.24,5-5,5h-240c-2.76,0-5-2.24-5-5v-240c0-2.76,2.24-5,5-5h240M370,100h-240c-16.57,0-30,13.43-30,30v240c0,16.57,13.43,30,30,30h240c16.57,0,30-13.43,30-30v-240c0-16.57-13.43-30-30-30h0Z" fill="#1c1c1c"/>
</svg>