<?xml version="1.0" encoding="UTF-8"?>
<svg id="_图层_1" data-name="图层_1" xmlns="http://www.w3.org/2000/svg" version="1.1" viewBox="0 0 500 500">
  <!-- Generator: Adobe Illustrator 29.4.0, SVG Export Plug-In . SVG Version: 2.1.0 Build 152)  -->
  <path d="M320,180h-80c-11.05,0-20-8.95-20-20v-60h120v60c0,11.05-8.95,20-20,20Z" fill="#3e7df9"/>
  <path d="M310.4,310c5.51,0,10,4.49,10,10v70h-140v-70c0-5.51,4.49-10,10-10h120M310.4,300h-120c-11.05,0-20,8.95-20,20v80h160v-80c0-11.05-8.95-20-20-20h0Z" fill="#3e7df9"/>
  <rect x="200.4" y="345" width="100" height="10" rx="5" ry="5" fill="#3e7df9"/>
  <rect x="200.4" y="325" width="100" height="10" rx="5" ry="5" fill="#3e7df9"/>
  <rect x="200.4" y="365" width="100" height="10" rx="5" ry="5" fill="#3e7df9"/>
  <path d="M370,110c11.03,0,20,8.97,20,20v240c0,11.03-8.97,20-20,20h-240c-11.03,0-20-8.97-20-20v-240c0-11.03,8.97-20,20-20h240M370,100h-240c-16.57,0-30,13.43-30,30v240c0,16.57,13.43,30,30,30h240c16.57,0,30-13.43,30-30v-240c0-16.57-13.43-30-30-30h0Z" fill="#eaeff4"/>
</svg>