<?xml version="1.0" encoding="UTF-8"?>
<svg xmlns="http://www.w3.org/2000/svg" version="1.1" viewBox="0 0 500 500">
  <!-- Generator: Adobe Illustrator 28.7.1, SVG Export Plug-In . SVG Version: 1.2.0 Build 142)  -->
  <g>
    <g id="_图层_1" data-name="图层_1">
      <path d="M250,75c-96.65,0-175,78.35-175,175s78.35,175,175,175,175-78.35,175-175-78.35-175-175-175ZM250,340c-49.71,0-90-40.29-90-90s40.29-90,90-90,90,40.29,90,90-40.29,90-90,90Z" fill="#242424"/>
      <path d="M288.6,109.5h-77.2c-14.21,0-23.52-11.85-20.98-25.38l5.94-31.75c1.9-10.15,12.35-17.87,23.46-17.87h60.36c11.11,0,21.56,7.72,23.46,17.87l5.94,31.75c2.53,13.54-6.77,25.38-20.98,25.38Z" fill="#242424"/>
      <path d="M288.6,390.5h-77.2c-14.21,0-23.52,11.85-20.98,25.38l5.94,31.75c1.9,10.15,12.35,17.87,23.46,17.87h60.36c11.11,0,21.56-7.72,23.46-17.87l5.94-31.75c2.53-13.54-6.77-25.38-20.98-25.38Z" fill="#242424"/>
      <path d="M147.62,146.32l-38.6,66.86c-7.11,12.31-22.02,14.44-32.48,5.48l-24.52-21.02c-7.84-6.72-9.3-19.63-3.74-29.25l30.18-52.27c5.56-9.62,17.46-14.82,27.2-11.39l30.47,10.73c12.99,4.57,18.6,18.56,11.49,30.86Z" fill="#242424"/>
      <path d="M390.98,286.82l-38.6,66.86c-7.11,12.31-1.5,26.29,11.49,30.86l30.47,10.73c9.74,3.43,21.65-1.76,27.2-11.39l30.18-52.27c5.56-9.62,4.1-22.53-3.74-29.25l-24.52-21.02c-10.46-8.96-25.37-6.83-32.48,5.48Z" fill="#242424"/>
      <path d="M109.02,286.82l38.6,66.86c7.11,12.31,1.5,26.29-11.49,30.86l-30.47,10.73c-9.74,3.43-21.65-1.76-27.2-11.39l-30.18-52.27c-5.56-9.62-4.1-22.53,3.74-29.25l24.52-21.02c10.46-8.96,25.37-6.83,32.48,5.48Z" fill="#242424"/>
      <path d="M352.38,146.32l38.6,66.86c7.11,12.31,22.02,14.44,32.48,5.48l24.52-21.02c7.84-6.72,9.3-19.63,3.74-29.25l-30.18-52.27c-5.56-9.62-17.46-14.82-27.2-11.39l-30.47,10.73c-12.99,4.57-18.6,18.56-11.49,30.86Z" fill="#242424"/>
    </g>
  </g>
</svg>