<?xml version="1.0" encoding="UTF-8"?>
<svg id="_图层_1" data-name="图层_1" xmlns="http://www.w3.org/2000/svg" version="1.1" viewBox="0 0 500 500">
  <!-- Generator: Adobe Illustrator 29.4.0, SVG Export Plug-In . SVG Version: 2.1.0 Build 152)  -->
  <path d="M127.12,40.82h250c19.32,0,35,15.68,35,35v145c0,11.04-8.96,20-20,20H112.12c-11.04,0-20-8.96-20-20V75.82c0-19.32,15.68-35,35-35Z" fill="#1c1c1c"/>
  <path d="M376.74,325.24H123.26c-11.67,0-24.34-9.15-28.52-21l-8.17-23.21c-4.89-13.9,1.95-25.79,15.56-25.79h295.72c13.61,0,20.46,11.89,15.56,25.79l-8.17,23.21c-4.17,11.85-16.85,21-28.52,21Z" fill="#1c1c1c"/>
  <path d="M267.73,459.18h-35.46c-13.06,0-23-9.55-22.23-20.92l8.57-126.97c.46-6.78,8.64-12.14,18.29-12.14h26.2c9.65,0,17.83,5.36,18.29,12.14l8.57,126.97c.77,11.37-9.17,20.92-22.23,20.92Z" fill="#1c1c1c"/>
</svg>