<?xml version="1.0" encoding="UTF-8"?>
<svg id="_图层_1" data-name="图层_1" xmlns="http://www.w3.org/2000/svg" version="1.1" viewBox="0 0 500 500">
  <!-- Generator: Adobe Illustrator 29.4.0, SVG Export Plug-In . SVG Version: 2.1.0 Build 152)  -->
  <text transform="translate(217.38 294.68)" fill="#f8f8f8" font-family="Arial-BoldMT, Arial" font-size="119.9" font-weight="700" opacity=".5"><tspan x="0" y="0">1</tspan></text>
  <g opacity=".8">
    <path d="M113.8,361.43c-38.41-21.33-64.41-62.31-64.41-109.36h0c0-69.04,55.96-125,125-125h150" fill="none" stroke="#f8f8f8" stroke-miterlimit="10" stroke-width="50"/>
    <rect x="268.98" y="43.31" width="50" height="120" rx="25" ry="25" transform="translate(13.06 238.13) rotate(-45)" fill="#f8f8f8"/>
    <rect x="233.64" y="127.01" width="120" height="50" rx="25" ry="25" transform="translate(-21.48 252.16) rotate(-45)" fill="#f8f8f8"/>
  </g>
  <g opacity=".8">
    <path d="M386.2,138.57c38.41,21.33,64.41,62.31,64.41,109.36h0c0,69.04-55.96,125-125,125h-150" fill="none" stroke="#f8f8f8" stroke-miterlimit="10" stroke-width="50"/>
    <rect x="181.02" y="336.69" width="50" height="120" rx="25" ry="25" transform="translate(-220.16 261.87) rotate(-45)" fill="#f8f8f8"/>
    <rect x="146.36" y="322.99" width="120" height="50" rx="25" ry="25" transform="translate(-185.63 247.84) rotate(-45)" fill="#f8f8f8"/>
  </g>
</svg>