<?xml version="1.0" encoding="UTF-8"?>
<svg id="_图层_1" data-name="图层_1" xmlns="http://www.w3.org/2000/svg" version="1.1" viewBox="0 0 500 500">
  <!-- Generator: Adobe Illustrator 29.4.0, SVG Export Plug-In . SVG Version: 2.1.0 Build 152)  -->
  <g opacity=".8">
    <g>
      <rect x="96.03" y="225.35" width="300" height="50" rx="25" ry="25" transform="translate(-104.96 247.29) rotate(-45)" fill="#f8f8f8"/>
      <rect x="310.75" y="136.09" width="150" height="50" rx="25" ry="25" fill="#f8f8f8"/>
      <rect x="47.12" y="314.12" width="130" height="50" rx="25" ry="25" fill="#f8f8f8"/>
      <rect x="351" y="162.1" width="120" height="50" rx="25" ry="25" transform="translate(-11.92 345.42) rotate(-45)" fill="#f8f8f8"/>
      <rect x="386.08" y="76.44" width="50" height="120" rx="25" ry="25" transform="translate(23.92 330.64) rotate(-45)" fill="#f8f8f8"/>
    </g>
    <g>
      <rect x="88.08" y="215.31" width="300" height="50" rx="25" ry="25" transform="translate(239.66 -97.96) rotate(45)" fill="#f8f8f8"/>
      <rect x="302.8" y="304.57" width="150" height="50" rx="25" ry="25" fill="#f8f8f8"/>
      <rect x="39.18" y="126.54" width="130" height="50" rx="25" ry="25" fill="#f8f8f8"/>
      <rect x="378.06" y="243.56" width="50" height="120" rx="25" ry="25" transform="translate(-96.6 373.92) rotate(-45)" fill="#f8f8f8"/>
      <rect x="343.13" y="329.22" width="120" height="50" rx="25" ry="25" transform="translate(-132.4 388.8) rotate(-45)" fill="#f8f8f8"/>
    </g>
  </g>
</svg>