<?xml version="1.0" encoding="UTF-8"?>
<svg id="_图层_1" data-name="图层_1" xmlns="http://www.w3.org/2000/svg" version="1.1" viewBox="0 0 500 500">
  <!-- Generator: Adobe Illustrator 29.4.0, SVG Export Plug-In . SVG Version: 2.1.0 Build 152)  -->
  <path d="M250,110c37.4,0,72.55,14.56,98.99,41.01,26.44,26.44,41.01,61.6,41.01,98.99s-14.56,72.55-41.01,98.99-61.6,41.01-98.99,41.01-72.55-14.56-98.99-41.01c-26.44-26.44-41.01-61.6-41.01-98.99s14.56-72.55,41.01-98.99c26.44-26.44,61.6-41.01,98.99-41.01M250,100c-82.84,0-150,67.16-150,150s67.16,150,150,150,150-67.16,150-150-67.16-150-150-150h0Z" fill="#202428"/>
  <path d="M250,190c22.06,0,40,17.94,40,40s-17.94,40-40,40-40-17.94-40-40,17.94-40,40-40M250,180c-27.61,0-50,22.39-50,50s22.39,50,50,50,50-22.39,50-50-22.39-50-50-50h0Z" fill="#202428"/>
  <path d="M139.14,350.3c61.28-61.28,160.44-61.28,221.72,0" fill="none" stroke="#202428" stroke-miterlimit="10" stroke-width="10"/>
</svg>