<?xml version="1.0" encoding="UTF-8"?>
<svg id="_图层_1" data-name="图层_1" xmlns="http://www.w3.org/2000/svg" version="1.1" viewBox="0 0 500 500">
  <!-- Generator: Adobe Illustrator 29.4.0, SVG Export Plug-In . SVG Version: 2.1.0 Build 152)  -->
  <path d="M250,115c36.06,0,69.96,14.04,95.46,39.54s39.54,59.4,39.54,95.46-14.04,69.96-39.54,95.46-59.4,39.54-95.46,39.54-69.96-14.04-95.46-39.54-39.54-59.4-39.54-95.46,14.04-69.96,39.54-95.46,59.4-39.54,95.46-39.54M250,85c-91.13,0-165,73.87-165,165s73.87,165,165,165,165-73.87,165-165-73.87-165-165-165h0Z" fill="#202428"/>
  <path d="M250,186.47c16.54,0,30,13.46,30,30s-13.46,30-30,30-30-13.46-30-30,13.46-30,30-30M250,156.47c-33.14,0-60,26.86-60,60s26.86,60,60,60,60-26.86,60-60-26.86-60-60-60h0Z" fill="#202428"/>
  <path d="M139.14,347.3c61.28-61.28,160.44-61.28,221.72,0" fill="none" stroke="#202428" stroke-miterlimit="10" stroke-width="30"/>
</svg>