<?xml version="1.0" encoding="UTF-8"?>
<svg id="_图层_1" data-name="图层_1" xmlns="http://www.w3.org/2000/svg" version="1.1" viewBox="0 0 500 500">
  <!-- Generator: Adobe Illustrator 29.4.0, SVG Export Plug-In . SVG Version: 2.1.0 Build 152)  -->
  <defs>
    <style>
      .st0 {
        fill: none;
        stroke: #202428;
        stroke-miterlimit: 10;
        stroke-width: 10px;
      }
    </style>
  </defs>
  <path class="st0" d="M102.4,257.18c-.13-.17-.26-.34-.38-.52-.11-.17-.21-.35-.32-.52-.1-.16-.2-.32-.29-.48-.1-.18-.18-.36-.26-.54-.08-.17-.17-.34-.24-.52-.07-.18-.13-.36-.2-.54-.07-.19-.14-.38-.2-.57-.05-.18-.09-.36-.14-.55-.05-.2-.1-.39-.14-.59-.04-.21-.07-.42-.1-.63-.03-.18-.06-.35-.08-.53-.04-.39-.06-.79-.06-1.18s.02-.79.06-1.18c.02-.18.05-.35.08-.53.03-.21.06-.42.1-.64.04-.2.09-.39.14-.59.05-.18.09-.37.14-.55.06-.19.13-.38.2-.57.06-.15.1-.31.16-.46.01-.03.02-.05.04-.08.07-.18.16-.35.24-.52.07-.16.14-.32.22-.47.01-.03.03-.05.04-.08.09-.17.19-.32.28-.48.1-.18.2-.35.32-.52.12-.18.25-.35.38-.52.11-.14.2-.29.32-.43.25-.31.52-.6.79-.88l84.85-84.85c4.69-4.69,12.28-4.69,16.97,0h0c4.69,4.69,4.69,12.28,0,16.97l-64.37,64.37h247.03c6.63,0,12,5.37,12,12s-5.37,12-12,12h-247.03l64.37,64.37c4.69,4.69,4.69,12.28,0,16.97h0c-4.69,4.69-12.28,4.69-16.97,0l-84.85-84.85c-.28-.28-.54-.57-.79-.88-.11-.14-.21-.28-.32-.43Z"/>
</svg>