<?xml version="1.0" encoding="UTF-8"?>
<svg id="_图层_1" xmlns="http://www.w3.org/2000/svg" version="1.1" viewBox="0 0 500 500">
  <!-- Generator: Adobe Illustrator 29.4.0, SVG Export Plug-In . SVG Version: 2.1.0 Build 152)  -->
  <path d="M190,279.63V114.63c0-8.28,6.72-15,15-15h90c8.28,0,15,6.72,15,15v165" fill="none" stroke="#1c1c1c" stroke-miterlimit="10" stroke-width="30"/>
  <path d="M190,264.67h-64.85c-25.34,0-34.71,28.9-13.11,40.39l124.85,66.41c8.05,4.28,18.17,4.28,26.22,0l124.85-66.41c21.61-11.5,12.23-40.39-13.11-40.39h-64.85" fill="none" stroke="#1c1c1c" stroke-miterlimit="10" stroke-width="30"/>
  <path d="M97.38,370.37h305.25c6.83,0,12.38,6.72,12.38,15h0c0,8.28-5.54,15-12.38,15H97.38c-6.83,0-12.38-6.72-12.38-15h0c0-8.28,5.54-15,12.38-15Z" fill="#1c1c1c"/>
</svg>