<?xml version="1.0" encoding="UTF-8"?>
<svg id="_图层_1" data-name="图层_1" xmlns="http://www.w3.org/2000/svg" version="1.1" viewBox="0 0 500 500">
  <!-- Generator: Adobe Illustrator 29.4.0, SVG Export Plug-In . SVG Version: 2.1.0 Build 152)  -->
  <defs>
    <style>
      .st0 {
        fill: #202428;
      }
    </style>
  </defs>
  <path class="st0" d="M340,226.04v140c0,11.03-8.97,20-20,20h-140c-11.03,0-20-8.97-20-20v-140h180M350,216.04h-200v150c0,16.57,13.43,30,30,30h140c16.57,0,30-13.43,30-30v-150h0Z"/>
  <path class="st0" d="M250,113.96c3.22,0,6.42.79,9.28,2.28l118.15,61.85c10.24,5.36,11.96,15.14,10.15,22.49-1.81,7.36-7.86,15.22-19.42,15.22h-236.3c-11.56,0-17.61-7.86-19.42-15.22-1.81-7.36-.09-17.13,10.15-22.49l118.15-61.85c2.85-1.49,6.06-2.28,9.28-2.28M250,103.96c-4.78,0-9.56,1.14-13.91,3.42l-118.15,61.85c-27.78,14.54-17.44,56.58,13.91,56.58h236.3c31.36,0,41.69-42.04,13.91-56.58l-118.15-61.85c-4.36-2.28-9.14-3.42-13.91-3.42h0Z"/>
  <path class="st0" d="M265,316.04c2.76,0,5,2.24,5,5v65h-40v-65c0-2.76,2.24-5,5-5h30M265,306.04h-30c-8.28,0-15,6.72-15,15v75h60v-75c0-8.28-6.72-15-15-15h0Z"/>
</svg>