<?xml version="1.0" encoding="UTF-8"?>
<svg id="_图层_1" data-name="图层_1" xmlns="http://www.w3.org/2000/svg" version="1.1" viewBox="0 0 500 500">
  <!-- Generator: Adobe Illustrator 29.4.0, SVG Export Plug-In . SVG Version: 2.1.0 Build 152)  -->
  <path d="M183.57,317.84v38.88s2.72,48.94-55.47,51.12c0,0-31-1.63-31.54-30.45,0,0-5.42-34.26,43.51-33.72,0,0,40.78.27,43.49-25.83Z" fill="none" stroke="#1c1c1c" stroke-miterlimit="10" stroke-width="40"/>
  <rect x="163.59" y="167.84" width="40" height="160" fill="#1c1c1c"/>
  <path d="M383.59,163.3l-200,40v-50c0-16.57,13.43-30,30-30l137.74-31.14c16.57,0,32.26,4.57,32.26,21.14v50Z" fill="none" stroke="#1c1c1c" stroke-miterlimit="10" stroke-width="40"/>
  <path d="M383.59,280.79v38.88s2.72,48.94-55.47,51.12c0,0-31-1.63-31.54-30.45,0,0-5.42-34.26,43.51-33.72,0,0,40.78.27,43.49-25.83Z" fill="none" stroke="#1c1c1c" stroke-miterlimit="10" stroke-width="40"/>
  <rect x="363.61" y="130.79" width="40" height="160" fill="#1c1c1c"/>
</svg>