<?xml version="1.0" encoding="UTF-8"?>
<svg id="_图层_1" data-name="图层_1" xmlns="http://www.w3.org/2000/svg" version="1.1" viewBox="0 0 500 500">
  <!-- Generator: Adobe Illustrator 29.4.0, SVG Export Plug-In . SVG Version: 2.1.0 Build 152)  -->
  <defs>
    <style>
      .st0 {
        fill: none;
        stroke: #202428;
        stroke-miterlimit: 10;
        stroke-width: 10px;
      }

      .st1 {
        fill: #202428;
      }
    </style>
  </defs>
  <path class="st1" d="M250,110c37.4,0,72.55,14.56,98.99,41.01,26.44,26.44,41.01,61.6,41.01,98.99s-14.56,72.55-41.01,98.99-61.6,41.01-98.99,41.01-72.55-14.56-98.99-41.01c-26.44-26.44-41.01-61.6-41.01-98.99s14.56-72.55,41.01-98.99c26.44-26.44,61.6-41.01,98.99-41.01M250,100c-82.84,0-150,67.16-150,150s67.16,150,150,150,150-67.16,150-150-67.16-150-150-150h0Z"/>
  <path class="st1" d="M250.4,199.57c27.57,0,50,22.43,50,50s-22.43,50-50,50-50-22.43-50-50,22.43-50,50-50M250.4,189.57c-33.14,0-60,26.86-60,60s26.86,60,60,60,60-26.86,60-60-26.86-60-60-60h0Z"/>
  <path class="st0" d="M124.92,250.24c0,69.09,55.91,125,125,125"/>
  <path class="st0" d="M162.71,298.57c-27.18-47.08-11.08-107.17,36-134.35"/>
  <path class="st1" d="M250.4,234.57c8.27,0,15,6.73,15,15s-6.73,15-15,15-15-6.73-15-15,6.73-15,15-15M250.4,224.57c-13.81,0-25,11.19-25,25s11.19,25,25,25,25-11.19,25-25-11.19-25-25-25h0Z"/>
</svg>