<?xml version="1.0" encoding="UTF-8"?>
<svg id="_图层_1" data-name="图层_1" xmlns="http://www.w3.org/2000/svg" version="1.1" viewBox="0 0 500 500">
  <!-- Generator: Adobe Illustrator 29.4.0, SVG Export Plug-In . SVG Version: 2.1.0 Build 152)  -->
  <defs>
    <style>
      .st0 {
        fill: #202428;
      }
    </style>
  </defs>
  <path class="st0" d="M199.86,109.86c49.63,0,90,40.37,90,90s-40.37,90-90,90-90-40.37-90-90,40.37-90,90-90M199.86,99.86c-55.23,0-100,44.77-100,100s44.77,100,100,100,100-44.77,100-100-44.77-100-100-100h0Z"/>
  <path class="st0" d="M266.85,261.85c-1.28,0-2.56.49-3.54,1.46-1.95,1.95-1.95,5.12,0,7.07l128.29,128.29c.98.98,2.26,1.46,3.54,1.46s2.56-.49,3.54-1.46c1.95-1.95,1.95-5.12,0-7.07l-128.29-128.29c-.98-.98-2.26-1.46-3.54-1.46h0Z"/>
</svg>