<?xml version="1.0" encoding="UTF-8"?>
<svg id="_图层_1" data-name="图层_1" xmlns="http://www.w3.org/2000/svg" version="1.1" viewBox="0 0 500 500">
  <!-- Generator: Adobe Illustrator 29.4.0, SVG Export Plug-In . SVG Version: 2.1.0 Build 152)  -->
  <path d="M250,92.86l38.15,89.11c5.79,13.53,18.5,22.76,33.16,24.09l96.53,8.75-72.95,63.82c-11.08,9.69-15.93,24.63-12.67,38.98l21.51,94.51-83.24-49.66c-6.19-3.7-13.28-5.65-20.49-5.65s-14.3,1.95-20.49,5.65l-83.24,49.66,21.51-94.51c3.27-14.35-1.59-29.29-12.67-38.98l-72.95-63.82,96.53-8.75c14.66-1.33,27.37-10.56,33.16-24.09l38.15-89.11M250,52.45c-5.6,0-11.19,3.03-13.79,9.1l-47.34,110.58c-2.17,5.07-6.94,8.54-12.44,9.03l-119.79,10.86c-13.14,1.19-18.45,17.54-8.52,26.23l90.53,79.2c4.15,3.63,5.97,9.24,4.75,14.62l-26.69,117.29c-2.28,10.02,5.66,18.37,14.64,18.37,2.54,0,5.17-.67,7.67-2.16l103.3-61.63c2.37-1.41,5.03-2.12,7.69-2.12s5.32.71,7.69,2.12l103.3,61.63c2.5,1.49,5.13,2.16,7.67,2.16,8.98,0,16.92-8.35,14.64-18.37l-26.69-117.29c-1.22-5.38.6-10.99,4.75-14.62l90.53-79.2c9.93-8.69,4.62-25.04-8.52-26.23l-119.79-10.86c-5.49-.5-10.27-3.97-12.44-9.03l-47.34-110.58c-2.6-6.06-8.19-9.1-13.79-9.1h0Z"/>
</svg>