<?xml version="1.0" encoding="UTF-8"?>
<svg id="_图层_1" data-name="图层_1" xmlns="http://www.w3.org/2000/svg" version="1.1" viewBox="0 0 500 500">
  <!-- Generator: Adobe Illustrator 29.4.0, SVG Export Plug-In . SVG Version: 2.1.0 Build 152)  -->
  <path d="M340,110c5.51,0,10,4.49,10,10v29.57c-38.98,17.49-65.1,56.84-65.1,100.43s26.12,82.94,65.1,100.43v29.57c0,5.51-4.49,10-10,10H80c-5.51,0-10-4.49-10-10V120c0-5.51,4.49-10,10-10h260M340,90H80c-16.57,0-30,13.43-30,30v260c0,16.57,13.43,30,30,30h260c16.57,0,30-13.43,30-30v-43.49c-37.59-10.8-65.1-45.44-65.1-86.51s27.51-75.71,65.1-86.51v-43.49c0-16.57-13.43-30-30-30h0Z"/>
  <path d="M370,125.47v23.16c9.34,5.15,18.02,11.64,25.77,19.39,21.58,21.58,33.46,50.26,33.46,80.77s-11.88,59.2-33.46,80.77c-7.75,7.75-16.43,14.24-25.77,19.39v23.16c47.14-21.06,80-68.35,80-123.32s-32.86-102.26-80-123.32Z"/>
  <path d="M315,210c-3.56,0-7.02.48-10.31,1.35v21.54c3.02-1.82,6.54-2.89,10.31-2.89,11.03,0,20,8.97,20,20s-8.97,20-20,20c-3.77,0-7.29-1.07-10.31-2.89v21.54c3.29.88,6.75,1.35,10.31,1.35,22.06,0,40-17.94,40-40s-17.94-40-40-40Z"/>
</svg>