<?xml version="1.0" encoding="UTF-8"?>
<svg id="_图层_1" data-name="图层_1" xmlns="http://www.w3.org/2000/svg" version="1.1" viewBox="0 0 500 500">
  <!-- Generator: Adobe Illustrator 29.4.0, SVG Export Plug-In . SVG Version: 2.1.0 Build 152)  -->
  <path d="M410,90v25.11c-49.09,26.02-81.38,77.84-81.38,134.89s32.29,108.87,81.38,134.89v25.11H90V90h320M412.5,50H87.5c-20.71,0-37.5,16.79-37.5,37.5v325c0,20.71,16.79,37.5,37.5,37.5h325c20.71,0,37.5-16.79,37.5-37.5v-54.36c-46.99-13.5-81.38-56.8-81.38-108.14s34.38-94.63,81.38-108.14v-54.36c0-20.71-16.79-37.5-37.5-37.5h0Z" fill="#1c1c1c"/>
  <path d="M404.9,151.45c25.24,25.14,40.87,59.94,40.87,98.38s-17.01,76.27-44.22,101.62" fill="none" stroke="#1c1c1c" stroke-miterlimit="10" stroke-width="40"/>
</svg>