<?xml version="1.0" encoding="UTF-8"?>
<svg id="_图层_1" data-name="图层_1" xmlns="http://www.w3.org/2000/svg" version="1.1" viewBox="0 0 500 500">
  <!-- Generator: Adobe Illustrator 29.4.0, SVG Export Plug-In . SVG Version: 2.1.0 Build 152)  -->
  <rect x="185" y="237.45" width="130" height="25" rx="12.5" ry="12.5" transform="translate(-103.52 249.99) rotate(-45)"/>
  <path d="M233.64,291.07c1.85,3.53,2.83,7.47,2.83,11.57,0,6.68-2.6,12.96-7.32,17.68l-102.53,102.53c-4.72,4.72-11,7.32-17.68,7.32s-12.96-2.6-17.68-7.32l-14.14-14.14c-4.72-4.72-7.32-11-7.32-17.68s2.6-12.96,7.32-17.68l102.53-102.53c4.72-4.72,11-7.32,17.68-7.32,4.1,0,8.04.98,11.57,2.83l14.5-14.5c-7.78-5.54-16.92-8.33-26.07-8.33-11.52,0-23.03,4.39-31.82,13.18l-102.53,102.53c-17.57,17.57-17.57,46.07,0,63.64l14.14,14.14c8.79,8.79,20.3,13.18,31.82,13.18s23.03-4.39,31.82-13.18l102.53-102.53c15.77-15.77,17.38-40.31,4.85-57.89l-14.5,14.5Z"/>
  <path d="M437.03,77.08l-14.14-14.14c-8.79-8.79-20.3-13.18-31.82-13.18-11.52,0-23.03,4.39-31.82,13.18l-102.53,102.53c-15.76,15.76-17.38,40.31-4.86,57.88l14.51-14.51c-4.9-9.42-3.4-21.33,4.49-29.23l102.53-102.53c4.72-4.72,11-7.32,17.68-7.32s12.96,2.6,17.68,7.32l14.14,14.14c4.72,4.72,7.32,11,7.32,17.68s-2.6,12.96-7.32,17.68l-102.53,102.53c-4.72,4.72-11,7.32-17.68,7.32-4.1,0-8.05-.98-11.58-2.83l-14.5,14.5c7.78,5.55,16.93,8.33,26.08,8.33,11.52,0,23.03-4.39,31.82-13.18l102.53-102.53c17.57-17.57,17.57-46.07,0-63.64Z"/>
</svg>