<?xml version="1.0" encoding="UTF-8"?>
<svg id="_图层_1" data-name="图层_1" xmlns="http://www.w3.org/2000/svg" version="1.1" viewBox="0 0 500 500">
  <!-- Generator: Adobe Illustrator 29.4.0, SVG Export Plug-In . SVG Version: 2.1.0 Build 152)  -->
  <path d="M434.52,65.65h0c-11.72-11.72-27.07-17.57-42.43-17.57s-30.71,5.86-42.43,17.57l-91.92,91.92c-18.96,18.96-22.57,47.46-10.84,70.07l23.56-23.56c-1.22-8.98,1.61-18.41,8.49-25.29l91.92-91.92c5.67-5.67,13.2-8.79,21.21-8.79s15.55,3.12,21.21,8.79c11.7,11.7,11.7,30.73,0,42.43l-91.92,91.92c-5.67,5.67-13.2,8.79-21.21,8.79-1.48,0-2.95-.11-4.4-.32l-23.47,23.47c8.7,4.56,18.28,6.85,27.87,6.85,15.36,0,30.71-5.86,42.43-17.57l91.92-91.92c23.43-23.43,23.43-61.42,0-84.85Z" fill="#1c1c1c"/>
  <path d="M229.84,295.62c1.33,9.07-1.49,18.63-8.45,25.59l-91.92,91.92c-5.67,5.67-13.2,8.79-21.21,8.79s-15.55-3.12-21.21-8.79c-11.7-11.7-11.7-30.73,0-42.43l91.92-91.92c5.67-5.67,13.2-8.79,21.21-8.79,1.38,0,2.75.1,4.09.28l23.55-23.55c-8.64-4.49-18.14-6.73-27.64-6.73-15.36,0-30.71,5.86-42.43,17.57l-91.92,91.92c-23.43,23.43-23.43,61.42,0,84.85h0c11.72,11.72,27.07,17.57,42.43,17.57s30.71-5.86,42.43-17.57l91.92-91.92c19.03-19.03,22.6-47.66,10.73-70.29l-23.49,23.49Z" fill="#1c1c1c"/>
  <rect x="160" y="235" width="180" height="30" rx="15" ry="15" transform="translate(-103.55 250) rotate(-45)" fill="#1c1c1c"/>
</svg>