<?xml version="1.0" encoding="UTF-8"?>
<svg id="_图层_1" data-name="图层_1" xmlns="http://www.w3.org/2000/svg" version="1.1" viewBox="0 0 500 500">
  <!-- Generator: Adobe Illustrator 29.4.0, SVG Export Plug-In . SVG Version: 2.1.0 Build 152)  -->
  <rect x="288.23" y="342.01" width="180" height="50" rx="25" ry="25" transform="translate(-148.73 374.94) rotate(-45)" fill="#f33"/>
  <rect x="50.06" y="218.01" width="400" height="60" rx="30" ry="30" fill="#1c1c1c"/>
  <rect x="50.06" y="337.01" width="240" height="60" rx="30" ry="30" fill="#1c1c1c"/>
  <rect x="150.06" y="97.01" width="300" height="60" rx="30" ry="30" fill="#1c1c1c"/>
  <path d="M122.42,109.26l-42.48-24.53c-13.33-7.7-30,1.92-30,17.32v49.05c0,15.4,16.67,25.02,30,17.32l42.48-24.53c13.33-7.7,13.33-26.94,0-34.64Z" fill="#1c1c1c"/>
  <rect x="288.23" y="342.01" width="180" height="50" rx="25" ry="25" transform="translate(370.3 -159.96) rotate(45)" fill="#f33"/>
</svg>