<?xml version="1.0" encoding="UTF-8"?>
<svg id="_图层_1" data-name="图层_1" xmlns="http://www.w3.org/2000/svg" version="1.1" viewBox="0 0 500 500">
  <!-- Generator: Adobe Illustrator 29.4.0, SVG Export Plug-In . SVG Version: 2.1.0 Build 152)  -->
  <rect x="50.4" y="209.24" width="400" height="50" rx="25" ry="25"/>
  <rect x="50.4" y="328.24" width="232" height="50" rx="25" ry="25"/>
  <rect x="151.4" y="88.24" width="299" height="50" rx="25" ry="25"/>
  <path d="M128.9,100.64l-50.18-28.97c-10-5.77-22.5,1.44-22.5,12.99v57.95c0,11.55,12.5,18.76,22.5,12.99l50.18-28.97c10-5.77,10-20.21,0-25.98Z"/>
  <rect x="303.23" y="343.24" width="150" height="30" rx="15" ry="15" transform="translate(364.09 -162.52) rotate(45)" fill="#f02e2b"/>
  <rect x="300.4" y="343.24" width="150" height="30" rx="15" ry="15" transform="translate(-143.36 370.38) rotate(-45)" fill="#f02e2b"/>
</svg>