<?xml version="1.0" encoding="UTF-8"?>
<svg id="_图层_1" data-name="图层_1" xmlns="http://www.w3.org/2000/svg" version="1.1" viewBox="0 0 500 500">
  <!-- Generator: Adobe Illustrator 29.4.0, SVG Export Plug-In . SVG Version: 2.1.0 Build 152)  -->
  <path d="M242.72,382.63l-103.3,61.63c-11.33,6.76-25.24-3.35-22.31-16.21l26.69-117.29c1.22-5.38-.6-10.99-4.75-14.62l-90.53-79.2c-9.93-8.69-4.62-25.04,8.52-26.23l119.79-10.86c5.49-.5,10.27-3.97,12.44-9.03l47.34-110.58c5.19-12.13,22.39-12.13,27.58,0l47.34,110.58c2.17,5.07,6.94,8.54,12.44,9.03l119.79,10.86c13.14,1.19,18.45,17.54,8.52,26.23l-90.53,79.2c-4.15,3.63-5.97,9.24-4.75,14.62l26.69,117.29c2.93,12.86-10.98,22.97-22.31,16.21l-103.3-61.63c-4.73-2.82-10.64-2.82-15.37,0Z" fill="#efe82e"/>
</svg>