<?xml version="1.0" encoding="UTF-8"?>
<svg xmlns="http://www.w3.org/2000/svg" version="1.1" viewBox="0 0 500 500">
  <!-- Generator: Adobe Illustrator 28.7.1, SVG Export Plug-In . SVG Version: 1.2.0 Build 142)  -->
  <g>
    <g id="_图层_1" data-name="图层_1">
      <path d="M250,80c45.41,0,88.1,17.68,120.21,49.79,32.11,32.11,49.79,74.8,49.79,120.21s-17.68,88.1-49.79,120.21c-32.11,32.11-74.8,49.79-120.21,49.79s-88.1-17.68-120.21-49.79c-32.11-32.11-49.79-74.8-49.79-120.21s17.68-88.1,49.79-120.21c32.11-32.11,74.8-49.79,120.21-49.79M250,50c-110.46,0-200,89.54-200,200s89.54,200,200,200,200-89.54,200-200S360.46,50,250,50h0Z" fill="#66c2ff"/>
      <rect x="240" y="177" width="30" height="200" rx="15" ry="15" fill="#66c2ff"/>
      <circle cx="247.5" cy="135.5" r="22.5" fill="#66c2ff"/>
      <rect x="195" y="177" width="75" height="30" rx="15" ry="15" fill="#66c2ff"/>
      <rect x="195" y="347" width="120" height="30" rx="15" ry="15" fill="#66c2ff"/>
    </g>
  </g>
</svg>