<?xml version="1.0" encoding="UTF-8"?>
<svg xmlns="http://www.w3.org/2000/svg" version="1.1" viewBox="0 0 500 500">
  <!-- Generator: Adobe Illustrator 28.7.1, SVG Export Plug-In . SVG Version: 1.2.0 Build 142)  -->
  <g>
    <g id="_图层_1" data-name="图层_1">
      <path d="M250,80c45.41,0,88.1,17.68,120.21,49.79,32.11,32.11,49.79,74.8,49.79,120.21s-17.68,88.1-49.79,120.21c-32.11,32.11-74.8,49.79-120.21,49.79s-88.1-17.68-120.21-49.79c-32.11-32.11-49.79-74.8-49.79-120.21s17.68-88.1,49.79-120.21c32.11-32.11,74.8-49.79,120.21-49.79M250,50c-110.46,0-200,89.54-200,200s89.54,200,200,200,200-89.54,200-200S360.46,50,250,50h0Z" fill="#85ffa3"/>
      <rect x="158.5" y="214.5" width="30" height="155" rx="15" ry="15" transform="translate(-147.1 179.84) rotate(-40)" fill="#85ffa3"/>
      <rect x="137.62" y="194.65" width="370.42" height="30" rx="15" ry="15" transform="translate(-45.28 322.19) rotate(-50)" fill="#85ffa3"/>
    </g>
  </g>
</svg>