<?xml version="1.0" encoding="UTF-8"?>
<svg id="_图层_1" data-name="图层_1" xmlns="http://www.w3.org/2000/svg" version="1.1" viewBox="0 0 500 500">
  <!-- Generator: Adobe Illustrator 29.4.0, SVG Export Plug-In . SVG Version: 2.1.0 Build 152)  -->
  <defs>
    <style>
      .st0 {
        fill: #fe3;
      }
    </style>
  </defs>
  <path class="st0" d="M250,119.21l159.68,276.58H90.32L250,119.21M250,74.21c-5.05,0-10.1,2.5-12.99,7.5L51.35,403.29c-5.77,10,1.44,22.5,12.99,22.5h371.33c11.55,0,18.76-12.5,12.99-22.5L262.99,81.71c-2.89-5-7.94-7.5-12.99-7.5h0Z"/>
  <path class="st0" d="M250,325h0c-8.28,0-15.18-4.95-15.42-11.24l-4.43-118.92c-.4-10.78,8.48-19.85,19.85-19.85h0c11.37,0,20.25,9.07,19.85,19.85l-4.43,118.92c-.23,6.28-7.13,11.24-15.42,11.24Z"/>
  <circle class="st0" cx="251" cy="360" r="20"/>
</svg>