<?xml version="1.0" encoding="UTF-8"?>
<svg id="_图层_1" data-name="图层_1" xmlns="http://www.w3.org/2000/svg" version="1.1" viewBox="0 0 500 500">
  <!-- Generator: Adobe Illustrator 29.4.0, SVG Export Plug-In . SVG Version: 2.1.0 Build 152)  -->
  <path d="M250,80c45.41,0,88.1,17.68,120.21,49.79,32.11,32.11,49.79,74.8,49.79,120.21s-17.68,88.1-49.79,120.21c-32.11,32.11-74.8,49.79-120.21,49.79s-88.1-17.68-120.21-49.79c-32.11-32.11-49.79-74.8-49.79-120.21s17.68-88.1,49.79-120.21c32.11-32.11,74.8-49.79,120.21-49.79M250,50c-110.46,0-200,89.54-200,200s89.54,200,200,200,200-89.54,200-200S360.46,50,250,50h0Z" fill="#1c1c1c"/>
  <path d="M250.54,110c-8.28,0-15,6.72-15,15v130c0,8.28,6.72,15,15,15s15-6.72,15-15V125c0-8.28-6.72-15-15-15h0Z" fill="#1c1c1c"/>
  <path d="M250.54,243.3c-3.84,0-7.68,1.46-10.61,4.39h0c-5.86,5.86-5.86,15.36,0,21.21l77.78,77.78c2.93,2.93,6.77,4.39,10.61,4.39s7.68-1.46,10.61-4.39c5.86-5.86,5.86-15.36,0-21.21l-77.78-77.78c-2.93-2.93-6.77-4.39-10.61-4.39h0Z" fill="#1c1c1c"/>
</svg>