<?xml version="1.0" encoding="UTF-8"?>
<svg xmlns="http://www.w3.org/2000/svg" version="1.1" viewBox="0 0 500 500">
  <!-- Generator: Adobe Illustrator 28.7.1, SVG Export Plug-In . SVG Version: 1.2.0 Build 142)  -->
  <g>
    <g id="_图层_1" data-name="图层_1">
      <path d="M390,100c11.03,0,20,8.97,20,20v260c0,11.03-8.97,20-20,20H110c-11.03,0-20-8.97-20-20V120c0-11.03,8.97-20,20-20h280M390,60H110c-33.14,0-60,26.86-60,60v260c0,33.14,26.86,60,60,60h280c33.14,0,60-26.86,60-60V120c0-33.14-26.86-60-60-60h0Z" fill="#232d30"/>
    </g>
  </g>
</svg>