<?xml version="1.0" encoding="UTF-8"?>
<svg xmlns="http://www.w3.org/2000/svg" version="1.1" xmlns:xlink="http://www.w3.org/1999/xlink" viewBox="0 0 500 500">
  <defs>
    <clipPath id="clippath">
      <polygon points="323 45 137 45 137 178 323 178 323 374 488 374 488 178 488 45 323 45" fill="none"/>
    </clipPath>
  </defs>
  <!-- Generator: Adobe Illustrator 28.7.1, SVG Export Plug-In . SVG Version: 1.2.0 Build 142)  -->
  <g>
    <g id="_图层_1" data-name="图层_1">
      <path d="M292.16,194.84c11.03,0,20,8.97,20,20v180c0,11.03-8.97,20-20,20H112.16c-11.03,0-20-8.97-20-20v-180c0-11.03,8.97-20,20-20h180M292.16,154.84H112.16c-33.14,0-60,26.86-60,60v180c0,33.14,26.86,60,60,60h180c33.14,0,60-26.86,60-60v-180c0-33.14-26.86-60-60-60h0Z" fill="#232d30"/>
      <g clip-path="url(#clippath)">
        <path d="M392,95c11.03,0,20,8.97,20,20v180c0,11.03-8.97,20-20,20h-180c-11.03,0-20-8.97-20-20V115c0-11.03,8.97-20,20-20h180M392,55h-180c-33.14,0-60,26.86-60,60v180c0,33.14,26.86,60,60,60h180c33.14,0,60-26.86,60-60V115c0-33.14-26.86-60-60-60h0Z" fill="#232d30"/>
      </g>
    </g>
  </g>
</svg>